<svg width="351" height="208" viewBox="0 0 351 208" fill="white"
    xmlns="http://www.w3.org/2000/svg">
    <path d="M94.5 0C71.6658 0 53.1562 22.8064 53.1562 50.9414C53.1562 73.6871 80.1773 115.144 90.5297 130.192C92.6264 133.24 96.3769 133.24 98.4703 130.192C108.823 115.144 135.844 73.6871 135.844 50.9414C135.844 22.8064 117.334 0 94.5 0ZM6.60188 87.3079C4.6534 88.2682 2.98308 89.9257 1.80636 92.0666C0.629634 94.2076 0.000466662 96.7339 0 99.3196L0 200.523C0 205.1 3.75047 208.229 7.19906 206.531L52.5 181.125V86.8915C49.5994 80.4308 47.227 74.14 45.5273 68.124L6.60188 87.3079ZM94.5 145.413C89.8833 145.413 85.5159 142.915 82.5202 138.557C76.0692 129.177 69.2081 118.495 63 107.539V181.121L126 206.996V107.543C119.792 118.495 112.934 129.181 106.48 138.561C103.484 142.915 99.1167 145.413 94.5 145.413Z"/>
    <path d="M287.149 196H222V76H240.623V171.983H287.149V196Z" />
    <path d="M323.098 196H304.539V100.017H276.572V76H351V100.017H323.098V196Z"/>
    <path fill-rule="evenodd" clip-rule="evenodd" d="M192.857 62.0013C190.265 61.9636 187.246 62.7595 183.733 64.6087C161.228 76.4536 142.719 86.6739 136 90.4584V207.364L183.227 184.175C188.822 179.551 195.638 171.032 201.061 161.038C206.498 151.017 210.5 139.577 210.5 129.166C210.5 128.271 210.501 127.352 210.502 126.412C210.517 112.591 210.537 94.2484 207.45 80.626C205.798 73.3385 203.281 67.5204 199.504 64.4344C197.63 62.9036 195.439 62.0388 192.857 62.0013ZM173.5 157.598C184.546 157.598 193.5 144.614 193.5 128.598C193.5 112.581 184.546 99.5977 173.5 99.5977C162.454 99.5977 153.5 112.581 153.5 128.598C153.5 144.614 162.454 157.598 173.5 157.598Z"/>
</svg>
